Patient4_TMGait_0pt4_03_right_23_EMG.mot
version=1
nRows=40
nColumns=33
inDegrees=no
endheader
time	1LAddLong	2LGlutMax	3LGlutMed	4LIliopsoas	5LSemiMemb	6LBicFemLong	7LRecFem	8LVastMed	9LVastLat	10LGasMed	11LTibAnt	12lTibPost	13LPeroneusLong	14LSol	15LExtDigLong	16LFlexDigLong	17RAddLong	18RGlutMax	19RGlutMed	20RIliopsoas	21RSemiMemb	22RBicFemLong	23RRecFem	24RVastMed	25RVastLat	26RGasMed	27RTibAnt	28RTibPost	29RPeroneusLong	30RSol	31RExtDigLong	32RFlexDigLong
30.41	-0.013733	-0.00351	0.000153	-0.008698	-0.008545	0.02655	-0.062256	0.00946	0.020142	-0.046844	-0.024719	0.007019	0.42114	0.046692	0.035858	0.007477	-0.00061	-0.11444	0.53024	-0.070953	0.12268	0.091095	-0.21835	0.067749	0.070953	-0.12802	0.073853	-0.05127	-0.27786	0.56229	-0.000458	-0.005493
30.411	-0.035706	0.004272	-0.012665	0	-0.018311	0.038147	-0.053101	0.018616	-0.011902	-0.0177	-0.03006	-0.015411	-0.12924	0.30548	0.062714	-0.039978	0.001831	-0.10147	0.34164	-0.025635	0.11246	0.25024	-0.22751	0.018768	0.045624	0.018311	0.063782	0.024567	-0.2446	0.48325	0.000153	-0.016785
30.412	-0.059967	-0.005951	-0.021362	0.006866	-0.054169	0.046234	-0.032806	0.02655	-0.034027	0.020905	0.001373	0.009766	-0.027008	0.35477	0.004272	-0.077667	0.016327	-0.1326	0.069122	0.16052	0.028687	0.20523	-0.20981	-0.029907	0.050507	0.067139	0.045471	0.12726	-0.16464	0.44067	-0.003662	-0.005951
30.413	-0.042419	-0.0177	0.003967	0.031433	-0.091248	0.007629	0.011139	0.037079	-0.04364	-0.040283	-0.017548	0.000458	0.48981	0.24185	-0.01709	-0.018463	0.007629	-0.1651	-0.09201	0.27145	0.008087	0.23377	-0.17975	-0.090637	0.0354	0.053101	-0.030212	0.082245	0.18814	0.2977	-0.000458	-0.003357
30.414	-0.020905	-0.017395	0.016632	0.017242	-0.091858	-0.080872	-0.003815	0.027771	-0.063477	-0.067291	-0.02182	0.010376	-0.15686	0.17487	0.037384	0.097961	0.017242	-0.1384	0.020447	0.28046	-0.087738	0.1886	-0.1857	-0.052948	0.053864	-0.002441	-0.063934	-0.14496	0.41245	-0.11978	-0.001068	-0.001373
30.415	0.006866	-0.015411	0.034485	0.002136	0.012054	-0.11398	-0.014954	0.023346	-0.035858	0.007172	0.03006	0.005951	-0.48248	-0.1062	-0.10712	0.03952	0.036621	-0.14084	0.031281	0.14786	0.11231	0.024719	-0.1915	-0.009003	0.039368	-0.014496	-0.037842	-0.112	0.27039	-0.58334	-0.000153	-0.007172
30.416	0.008545	-0.02655	0.031281	0.00824	0.04425	-0.11566	-0.018005	0.011292	-0.011139	0.044708	0.005798	0.009918	-0.15167	-0.088348	-0.080261	-0.032959	0.055237	-0.19547	0.31876	0.031586	-0.052185	0.036469	-0.22034	-0.053711	0.038452	-0.033722	-0.017548	0.10849	0.15961	-1.1998	-0.000305	-0.012665
30.417	0.005188	-0.035858	0.02533	0	-0.024414	-0.12543	0.055084	-0.00473	0.050812	0.003204	0.00946	0.004883	-0.19577	0.074463	0.053253	-0.031433	0.013733	-0.24521	0.11612	0.043488	-0.25009	0.043182	-0.21561	-0.014343	0.0383	0.11124	0.010071	0.12161	-0.067139	-1.3475	0.00061	-0.005646
30.418	0.008698	-0.040588	0.007629	-0.00946	0.001831	-0.1149	0.10422	-0.009918	0.065002	-0.055084	-0.0177	0.022278	-0.051422	-0.15106	0.018463	-0.018768	-0.049438	-0.17044	0.38361	-0.007172	-0.097351	-0.1088	-0.29144	-0.028839	0.072937	0.11551	0.037384	-0.12238	-0.29297	-0.26566	-0.000458	-0.009918
30.419	0.008698	-0.060272	0.001068	-0.001678	0.031891	-0.045319	0.06546	-0.016632	0.10895	-0.050049	-0.015717	0.010376	-0.19333	-0.32928	-0.066376	0.066071	-0.03418	-0.22553	0.11032	-0.033417	-0.089111	-0.09491	-0.28809	-0.003357	0.05249	0.10056	0.050507	0.31357	-0.5217	0.34637	-0.000305	-0.02655
30.42	0.000458	-0.039978	-0.00946	0.003204	0.022888	0.016022	0.04303	-0.007629	0.081635	-0.062408	-0.008545	0.00351	0.048981	-0.24521	-0.017853	0.052032	-0.003815	-0.22446	0.088348	-0.13687	-0.033722	-0.096283	-0.2507	-0.008545	0.05661	0.023956	0.057068	0.11337	-0.35309	0.22156	-0.000916	-0.018616
30.421	0.003967	0.007782	-0.004883	-0.007935	-0.016479	0.077057	-0.009766	0.003357	-0.020905	-0.036469	-0.018005	0.003204	0.11169	0.13931	-0.03006	-0.057526	0.002747	-0.18021	0.065155	-0.20096	0.019836	-0.22675	-0.2182	-0.003357	0.037689	-0.032959	0.030518	-0.017242	0.12985	0.70038	-0.001984	-0.006104
30.422	-0.01358	0.008392	-0.015411	0.00061	0.018005	0.038147	-0.000153	0.002899	-0.081177	0.024567	-0.004272	0.005646	0.085602	0.17868	-0.046997	-0.065002	-0.015259	-0.168	0.097351	-0.22705	0.12253	-0.33539	-0.24857	0.024261	0.042877	-0.053558	-0.004883	-0.030212	0.45029	0.31433	0.002441	-0.011902
30.423	0.00473	0.036163	-0.010681	0.011444	0.00885	0.018921	-0.02594	-0.000153	-0.07843	0.084076	-0.019379	0.009308	-0.079803	0.10757	-0.027313	-0.007172	-0.016632	-0.090332	0.059814	-0.080872	0.10712	-0.20233	-0.24704	-0.020599	0.039215	-0.058594	-0.037994	-0.014191	0.68115	-0.15686	0.002289	-0.00824
30.424	-0.004272	0.049438	-0.013275	0.016174	-0.015717	0.009155	-0.074921	0.008392	-0.049744	0.1207	-0.018768	0.003662	0.17105	0.10864	-0.011139	-0.006714	-0.01709	-0.11841	0.11673	0.048218	0.092621	-0.038147	-0.22293	-0.054321	0.029297	0.045471	-0.027771	-0.032501	0.50415	-0.3894	-0.000153	-0.013275
30.425	-0.006866	0.046997	-0.002899	0.00824	-0.002136	-0.013733	-0.083771	-0.001221	-0.071259	0.11765	-0.015411	0.00946	0.12787	0.14847	0.032196	-0.007019	-0.010986	-0.14175	0.21805	0.17227	0.025635	0.034943	-0.26947	-0.018768	0.040131	0.066071	0.000153	-0.027161	0.3067	0.43381	0.003204	-0.010376
30.426	0.017395	0.082092	-0.013733	-0.004578	0.036469	-0.056458	-0.10407	-0.002136	-0.067139	-0.005798	-0.01358	0.011749	-0.067596	0.093231	0.050049	0.006256	-0.004578	-0.14435	-0.011749	0.31006	0.07782	0.066071	-0.28732	0.029449	0.054169	0.007782	0.050812	-0.031586	0.16235	0.76157	0.001831	-0.007782
30.427	0.020752	0.10849	-0.017242	0.00412	0.056915	-0.050354	-0.079193	-0.003052	-0.039063	-0.16861	-0.023346	0.009003	-0.13748	-0.01236	0.013733	0.00946	0.000763	-0.093689	0.03479	0.16266	0.20325	-0.002441	-0.28046	-0.001068	0.046692	-0.011292	0.0177	-0.033569	0.13687	0.52445	0	-0.010681
30.428	0.00351	0.12543	-0.00351	0.002747	0.01709	-0.057068	-0.027771	-0.006714	-0.034943	-0.11719	-0.008698	0.014038	-0.096893	0.015717	0.016479	0.025787	-0.010376	-0.054932	0.083771	-0.095215	0.083008	-0.006714	-0.28839	0.024261	0.034027	-0.016174	0.016174	-0.04364	0.046997	0.49347	0.000763	-0.002594
30.429	0	0.089111	0.012665	-0.007782	0.019226	0.014954	-0.008087	0.002594	-0.02655	-0.078735	-0.011139	0	-0.086823	0.094757	0.004578	0.014954	-0.00473	-0.1178	0.059052	-0.19043	-0.014648	0.030823	-0.31952	-0.002136	0.020752	-0.017395	0.034027	-0.050049	0.11795	0.21759	0.001678	-0.014648
30.43	-0.005188	0.075378	-0.008392	0.004272	0.032349	0.1947	0.010681	-0.007172	-0.005493	-0.018463	-0.009003	0.065155	0.005035	0.032043	0.01358	-0.009003	0.007477	-0.096741	0.06958	-0.061646	-0.041504	0.13138	-0.28976	0.005341	0.024109	0.016632	0.041504	-0.054779	0.14145	0.029755	0.00061	-0.013885
30.431	-0.006409	0.041809	-0.009155	-0.019989	-0.016327	0.26138	0.033264	-0.005493	-0.032349	-0.055237	-0.007019	0.03952	0.15106	0.02533	0.034485	-0.0177	0.010071	-0.13336	0.067596	0.14557	0.044708	0.10437	-0.32028	-0.040741	0.023041	0.084991	0.023499	-0.037689	0.094757	0.093384	0.002899	-0.019226
30.432	-0.010681	-0.00885	0.011749	-0.006409	-0.061798	0.24689	0.009003	0.003357	-0.06073	-0.033112	-0.002289	-0.041199	0.26535	0.15106	0.042572	0	-0.008545	-0.12878	0.009918	0.20035	0.14923	0.12238	-0.32608	-0.012665	0.020294	0.010071	-0.009308	-0.052032	0.15533	0.15717	0.003204	-0.007477
30.433	-0.019836	0.032196	0.022125	0.013885	-0.090027	0.22919	0.037384	0.008392	-0.06012	-0.011902	-0.014343	0.11536	0.30563	0.1767	0.03891	0.008392	-0.017242	-0.12802	-0.008087	0.10193	0.13763	0.10559	-0.35004	0.005188	0.029297	-0.047455	-0.023041	0.014496	0.024109	0.10346	0.000458	-0.025177
30.434	-0.020447	0.029297	-0.013275	0.032654	-0.10346	0.12466	0.031891	0.012512	-0.047302	0.025787	-0.00824	-0.10666	0.029907	0.2095	0.023804	0.001526	0.009308	-0.068512	0.14847	-0.011597	0.084686	0.044861	-0.33005	0.035858	0.000153	-0.08194	0.000916	0.012665	-0.045929	0.33493	0.007019	-0.038757
30.435	-0.02655	0.014954	0.001068	0.02533	-0.096741	0.066223	0.022736	0.011597	-0.070343	0.021667	0.000458	-0.046387	-0.023193	0.091095	0.007172	0.003815	0.017853	-0.12344	-0.16342	0.001373	0.029602	0.08194	-0.34256	-0.003662	0.022736	-0.05661	-0.011597	-0.010986	-0.1265	0.16403	0.001984	-0.032654
30.436	-0.034943	0.031891	-0.018768	0.019073	-0.11398	-0.01709	0.007629	0.00885	-0.088348	-0.018921	-0.010986	0.000305	0.019836	0.077667	0.042877	0.005493	0.009308	-0.13397	-0.21149	0.028076	-0.022583	0.039978	-0.34454	-0.014496	0.012207	0.073547	-0.036774	-0.010223	-0.27878	-0.35446	0.000916	-0.039825
30.437	-0.017242	0.035706	-0.024719	0.007629	-0.056458	-0.19119	-0.031281	0.014191	-0.093689	-0.011139	-0.02243	0.027161	0.19318	0.072632	0.006561	-0.001526	0.019684	-0.11505	0.35324	0.000916	-0.032349	-0.026398	-0.38681	0.026703	0.028992	0.043335	-0.028992	-0.001221	-0.36224	-0.4599	0.002594	-0.046997
30.438	0.000305	0.007477	-0.022583	0.00824	0.072327	-0.19226	-0.014954	0.00061	-0.021667	-0.029449	-0.020752	0.027466	0.081329	0.1149	-0.003357	0.010681	0.03006	-0.12375	0.2359	-0.033569	-0.026398	-0.000458	-0.40634	-0.000763	0.012512	0.008698	-0.007782	-0.013123	-0.17487	0.035095	0.001221	-0.047607
30.439	-0.003052	0.067444	-0.014648	-0.00946	0.11978	-0.039825	-0.023346	0.006256	0.16251	-0.029449	-0.016937	0.027161	-0.27466	0.19043	0.033875	0.005341	0.030365	-0.20737	0.29785	-0.016632	-0.06546	0.071259	-0.37842	-0.054474	-0.011139	-0.011902	-0.010834	-0.021667	-0.11078	0.21133	0.001984	-0.045929
30.44	-0.00824	0.053253	0.006561	-0.002136	0.071716	0.067596	0.014496	0.00473	0.16922	0.027466	0.001068	0.030365	-0.14572	0.12466	-0.039673	0.000305	0.041656	-0.19272	-0.071411	-0.018768	-0.15839	0.090179	-0.39505	-0.062866	0.002899	-0.008545	-0.008698	-0.00885	0.18005	-0.06958	0.002136	-0.042572
30.441	-0.007477	0.03891	0.001373	0.00412	0.021973	0.051117	0.035553	0.007935	0.07431	0.051575	-0.004883	0.040283	-0.083008	0.11673	-0.029755	-0.007324	0.038757	-0.16724	-0.03006	-0.061798	-0.063782	0.033875	-0.40039	-0.082855	0.002747	-0.007172	-0.014648	0.036316	0.4744	-0.30655	0.001984	-0.042114
30.442	0.015564	0.009308	0.002594	-0.003052	0.027771	0.040588	-0.006866	0.00824	0.031128	0.051117	-0.007782	0.050812	-0.05249	0.12924	-0.012512	-0.012665	0.028687	-0.12817	0.091095	-0.058136	-0.21103	0.044403	-0.3952	-0.019226	0.023346	-0.006561	-0.017548	-0.11749	0.30579	-0.3125	0.001984	-0.035706
30.443	0.02182	0.067291	-0.019226	0.005188	0.063782	0.005798	-0.038147	0.006409	0.016327	0.029144	-0.005188	0.06546	-0.084229	0.038757	0.005493	-0.019226	-0.006714	-0.11765	0.20157	-0.070801	-0.055847	0.025177	-0.40604	0.039673	0.021973	-0.032806	-0.027466	-0.15945	0.081635	0.29098	0.007477	-0.024261
30.444	0.035858	-0.00473	-0.026703	0.001984	0.10956	-0.062714	-0.037384	0.011902	-0.000916	0.028687	0.002441	0.075989	-0.097046	0.094452	0.05661	-0.016479	-0.041962	-0.18463	0.4332	-0.072937	0.062408	0.059967	-0.37857	0.021057	0.006409	-0.034637	0.006714	-0.017548	-0.074463	0.33966	0.005798	-0.029755
30.445	0.024414	-0.017395	-0.005951	0.012054	0.112	-0.23636	-0.020599	0.006866	-0.01709	0.024567	-0.005035	0.098572	0.093536	0.13031	0.056763	-0.006561	-0.005035	-0.23392	-0.11688	-0.025482	-0.018311	0.044708	-0.36026	-0.032501	-0.012665	0.003204	-0.034027	0.15442	-0.19821	-0.21072	0.000153	-0.018616
30.446	0.016327	-0.00885	0.00946	0.002747	0.008087	-0.30319	0.031128	0.002899	-0.029297	0.009766	-0.002899	0.11749	-0.019379	0.029907	0.049744	0.000916	0.001221	-0.22247	-0.30029	-0.033722	0.01236	-0.042114	-0.33234	-0.028076	-0.011902	0.032501	-0.011902	0.092773	-0.24918	-0.46722	0.001984	-0.01236
30.447	0.010834	-0.013733	0.006256	0.007324	-0.033112	-0.29541	0.04837	-0.001984	0.027771	0.00946	-0.011902	0.14206	-0.22873	0.030823	0.028229	0.020905	-0.006866	-0.1767	-0.09964	-0.058441	0.18631	-0.088806	-0.38116	-0.003204	-0.005341	0.024261	-0.009613	0.018463	-0.16602	-0.17395	0.001221	-0.009308
30.448	0.019836	-0.026855	-0.008545	0.000305	0.023499	-0.16983	-0.005188	0.002899	0.061493	-0.00061	-0.004883	0.15213	0.22675	-0.014954	0.059814	0.028076	0.000305	-0.1416	-0.16281	-0.048218	0.17639	-0.099792	-0.3923	0.036469	0.002747	-0.005188	-0.031891	0.000916	-0.11581	0.075684	-0.00061	-0.006104
30.449	0.014496	-0.057526	-0.016632	0.010071	0.066071	-0.076141	0.027313	-0.009155	0	-0.004578	-0.005646	0.15335	0.067902	-0.13519	0.053253	0.04837	0.007629	-0.13229	-0.12985	-0.026245	0.11047	-0.11765	-0.38711	-0.002136	0.007782	-0.016174	-0.065155	-0.00412	0.024414	0.10223	0.001831	-0.000305
